<svg xmlns="http://www.w3.org/2000/svg" viewBox="0 0 24 24" fill="none">
  <path d="M11.007.001A11.852 11.852 0 0 0 .187 9.601a11.852 11.852 0 0 0 2.89 10.442 11.852 11.852 0 0 0 10.216 3.58A11.852 11.852 0 0 0 22.12 17.3 11.852 11.852 0 0 0 23.792 6.26 11.852 11.852 0 0 0 15.68.3 11.852 11.852 0 0 0 11.007.001zm.42 3.09c.395-.011.795.16 1.028.508l1.789 2.67c.31.463.197 1.088-.253 1.413l-.027.02c.41.54.77 1.225.994 1.79l.994-.298c.55-.164 1.119.153 1.283.707l.622 2.1c.164.554-.148 1.135-.698 1.3l-.986.296c.003.702-.09 1.443-.302 2.013l.83.619c.45.335.55.973.222 1.43l-1.677 2.32c-.33.458-.96.56-1.408.225l-.797-.594c-.556.443-1.175.82-1.7 1.01l.233.968c.13.544-.202 1.092-.742 1.225l-2.067.51c-.54.133-1.082-.2-1.213-.744l-.233-.972c-.652.038-1.342-.045-1.918-.218l-.543.82c-.297.45-.908.57-1.367.268l-2.332-1.534c-.459-.302-.575-.92-.278-1.37l.543-.82c-.402-.466-.737-1.07-.938-1.63l-.882.263c-.55.164-1.13-.148-1.294-.702l-.622-2.1c-.164-.554.149-1.135.698-1.3l.874-.262c-.003-.684.083-1.413.284-1.975l-.72-.536c-.45-.335-.55-.973-.222-1.43l1.677-2.32c.33-.458.96-.56 1.408-.225l.685.511c.534-.452 1.143-.84 1.666-1.042l-.202-.84c-.13-.545.203-1.093.742-1.226l2.067-.51c.54-.133 1.083.2 1.213.745l.198.822c.619-.051 1.28.026 1.854.178l.47-.71c.165-.25.409-.395.663-.406z" fill="#5B4638"/>
</svg>
