<svg xmlns="http://www.w3.org/2000/svg" viewBox="0 0 24 24" fill="none">
  <path d="M7.245 12c0 1.8-.6 3.36-1.8 4.56-1.2 1.2-2.76 1.8-4.56 1.8h-.12v-2.4h.12c1.08 0 2.04-.48 2.82-1.26.78-.78 1.14-1.68 1.14-2.7v-.12c0-1.02-.36-1.92-1.14-2.7-.78-.78-1.74-1.14-2.82-1.14h-.12V5.64h.12c1.8 0 3.36.6 4.56 1.8 1.2 1.2 1.8 2.76 1.8 4.56z" fill="#2F8D46"/>
  <path d="M23.245 12c0 1.8-.6 3.36-1.8 4.56-1.2 1.2-2.76 1.8-4.56 1.8h-.12v-2.4h.12c1.08 0 2.04-.48 2.82-1.26.78-.78 1.14-1.68 1.14-2.7v-.12c0-1.02-.36-1.92-1.14-2.7-.78-.78-1.74-1.14-2.82-1.14h-.12V5.64h.12c1.8 0 3.36.6 4.56 1.8 1.2 1.2 1.8 2.76 1.8 4.56z" fill="#2F8D46"/>
  <rect x="7" y="11" width="10" height="2" rx="1" fill="#2F8D46"/>
</svg>
